<svg width="25" height="28" viewBox="0 0 25 28" fill="none" xmlns="http://www.w3.org/2000/svg">
<path d="M23.5 7.14453H18V6.57324C18 4.90657 17.4205 3.30817 16.3891 2.12966C15.3576 0.951144 13.9587 0.289063 12.5 0.289062C11.0413 0.289063 9.64236 0.951144 8.61091 2.12966C7.57946 3.30817 7 4.90657 7 6.57324V7.14453H1.5C1.10218 7.14453 0.720644 7.3251 0.43934 7.64651C0.158035 7.96792 0 8.40385 0 8.8584V25.9971C0 26.4516 0.158035 26.8875 0.43934 27.209C0.720644 27.5304 1.10218 27.7109 1.5 27.7109H23.5C23.8978 27.7109 24.2794 27.5304 24.5607 27.209C24.842 26.8875 25 26.4516 25 25.9971V8.8584C25 8.40385 24.842 7.96792 24.5607 7.64651C24.2794 7.3251 23.8978 7.14453 23.5 7.14453ZM8 6.57324C8 5.2096 8.47411 3.90182 9.31802 2.93758C10.1619 1.97334 11.3065 1.43164 12.5 1.43164C13.6935 1.43164 14.8381 1.97334 15.682 2.93758C16.5259 3.90182 17 5.2096 17 6.57324V7.14453H8V6.57324ZM24 25.9971C24 26.1486 23.9473 26.2939 23.8536 26.401C23.7598 26.5082 23.6326 26.5684 23.5 26.5684H1.5C1.36739 26.5684 1.24021 26.5082 1.14645 26.401C1.05268 26.2939 1 26.1486 1 25.9971V8.8584C1 8.70688 1.05268 8.56157 1.14645 8.45444C1.24021 8.3473 1.36739 8.28711 1.5 8.28711H23.5C23.6326 8.28711 23.7598 8.3473 23.8536 8.45444C23.9473 8.56157 24 8.70688 24 8.8584V25.9971Z" fill="#A4A0A0"/>
</svg>
